<?xml version="1.0" standalone="no"?><!DOCTYPE svg PUBLIC "-//W3C//DTD SVG 1.1//EN" "http://www.w3.org/Graphics/SVG/1.1/DTD/svg11.dtd"><svg t="1587881122807" class="icon" viewBox="0 0 1071 1024" version="1.1" xmlns="http://www.w3.org/2000/svg" p-id="6852" xmlns:xlink="http://www.w3.org/1999/xlink" width="209.1796875" height="200"><defs><style type="text/css"></style></defs><path d="M563.672615 958.779077H948.381538v28.987077H563.672615z m0-52.932923H948.381538v29.144615H563.672615z m0-47.261539H948.381538v29.144616H563.672615z m0-52.775384H948.381538V834.953846H563.672615z" fill="#13227a" p-id="6853"></path><path d="M451.032615 1003.677538h74.200616v-230.006153h456.073846v230.006153H1055.507692V694.429538H451.032615zM971.539692 630.153846H540.356923l-89.324308 54.193231H1055.507692z" fill="#13227a" p-id="6854"></path><path d="M110.276923 0h157.538462v63.015385H110.276923zM0 63.015385h393.846154v110.276923H0zM724.676923 126.030769H441.107692V15.753846h299.323077l-15.753846 110.276923zM693.169231 330.830769H441.107692v-110.276923h267.815385l-15.753846 110.276923zM1055.507692 126.030769H787.692308l15.753846-110.276923h267.815384l-15.753846 110.276923zM1008.246154 330.830769H756.184615l15.753847-110.276923h252.061538l-15.753846 110.276923zM441.107692 472.615385h630.153846v110.276923H441.107692z" fill="#13227a" p-id="6855"></path><path d="M567.138462 472.615385l63.015384-456.861539h110.276923l-63.015384 456.861539h-110.276923zM882.215385 472.615385l31.507692-252.061539h110.276923l-31.507692 252.061539h-110.276923zM0 236.307692h393.846154v110.276923H0zM0 409.6h393.846154v110.276923H0zM0 582.892308h252.061538v110.276923H0zM0 913.723077h393.846154v110.276923H0z" fill="#13227a" p-id="6856"></path><path d="M0 976.738462V582.892308h110.276923v393.846154zM283.569231 976.738462V582.892308h110.276923v393.846154z" fill="#13227a" p-id="6857"></path></svg>